<?xml version="1.0" standalone="no"?>
<!DOCTYPE svg PUBLIC "-//W3C//DTD SVG 20010904//EN"
 "http://www.w3.org/TR/2001/REC-SVG-20010904/DTD/svg10.dtd">
<svg version="1.0" xmlns="http://www.w3.org/2000/svg"
 width="3264.000000pt" height="3264.000000pt" viewBox="0 0 3264.000000 3264.000000"
 preserveAspectRatio="xMidYMid meet">

<g transform="translate(0.000000,3264.000000) scale(0.100000,-0.100000)"
fill="#000000" stroke="none">
<path d="M15725 25314 c-490 -35 -778 -73 -1187 -155 -870 -174 -1826 -509
-2743 -961 -243 -119 -898 -572 -1335 -922 -1575 -1261 -2621 -2719 -3164
-4411 -219 -681 -346 -1366 -408 -2195 -20 -268 -17 -1088 5 -1355 80 -963
271 -1808 606 -2683 204 -534 485 -1114 688 -1422 1352 -2048 3023 -3413 4980
-4069 574 -192 1156 -322 1773 -395 424 -50 644 -63 1220 -72 l425 -6 255 36
c1689 242 2866 567 3690 1020 133 73 390 244 500 333 113 90 270 248 352 353
275 354 371 700 340 1230 -17 291 -64 487 -162 683 -215 427 -614 706 -1255
878 l-120 33 -316 3 -317 4 -98 -49 c-143 -71 -444 -209 -640 -292 -767 -326
-1424 -512 -2084 -592 -154 -18 -234 -22 -475 -21 -679 1 -1343 114 -2080 353
-407 133 -526 186 -880 400 -562 339 -955 640 -1346 1030 -393 392 -656 755
-852 1175 -77 165 -187 452 -187 487 0 4 2927 8 6505 8 6974 0 6576 -3 6800
46 405 87 742 338 972 724 67 112 90 160 151 311 61 149 130 385 167 570 l28
134 -7 387 c-7 404 -16 599 -41 883 -93 1029 -353 2044 -762 2970 -98 221
-227 477 -315 624 -929 1544 -2049 2742 -3325 3559 -1048 670 -2233 1103
-3493 1276 -528 72 -739 87 -1325 91 -269 1 -512 1 -540 -1z m1300 -3669
c1077 -103 2166 -662 3310 -1699 94 -85 133 -131 263 -310 542 -746 937 -1383
1116 -1802 96 -224 126 -326 151 -511 l5 -43 -5636 0 -5636 0 7 46 c10 70 42
186 85 315 122 361 481 1073 700 1389 1105 1597 2434 2455 4040 2610 256 25
1350 28 1595 5z"/>
</g>
</svg>
